HIERARCHY
ROOT Hips
{
    OFFSET 0.000000 0.000000 0.000000
    CHANNELS 6 Xposition Yposition Zposition Zrotation Yrotation Xrotation
    JOINT Chest
    {
        OFFSET 0.000000 1.634758 -0.000000
        CHANNELS 3 Zrotation Yrotation Xrotation
        JOINT Chest2
        {
            OFFSET 0.000000 2.197341 0.000000
            CHANNELS 3 Zrotation Yrotation Xrotation
            JOINT Neck
            {
                OFFSET 0.000000 0.961544 0.000000
                CHANNELS 3 Zrotation Yrotation Xrotation
                JOINT Head
                {
                    OFFSET 0.000000 0.632542 -0.032565
                    CHANNELS 3 Zrotation Yrotation Xrotation
                    End Site
                    {
                        OFFSET -0.000001 0.439502 2.922845
                    }
                }
            }
            JOINT LeftCollar
            {
                OFFSET 0.167536 0.778237 -0.168280
                CHANNELS 3 Zrotation Yrotation Xrotation
                JOINT LeftShoulder
                {
                    OFFSET 0.831514 -0.002900 0.006458
                    CHANNELS 3 Zrotation Yrotation Xrotation
                    JOINT LeftElbow
                    {
                        OFFSET 2.272872 -0.026639 0.059314
                        CHANNELS 3 Zrotation Yrotation Xrotation
                        JOINT LeftWrist
                        {
                            OFFSET 2.081982 -0.024402 0.054333
                            CHANNELS 3 Zrotation Yrotation Xrotation
                            JOINT LeftHandThumb1
                            {
                                OFFSET 0.218903 -0.128645 0.283837
                                CHANNELS 3 Zrotation Yrotation Xrotation
                                JOINT LeftHandThumb2
                                {
                                    OFFSET 0.137157 -0.025101 0.077902
                                    CHANNELS 3 Zrotation Yrotation Xrotation
                                    JOINT LeftHandThumb3
                                    {
                                        OFFSET 0.165861 -0.067014 0.039226
                                        CHANNELS 3 Zrotation Yrotation Xrotation
                                        End Site
                                        {
                                            OFFSET 0.241157 -0.045065 0.107930
                                        }
                                    }
                                }
                            }
                            JOINT LeftHandFore1
                            {
                                OFFSET 0.767340 -0.016076 0.196678
                                CHANNELS 3 Zrotation Yrotation Xrotation
                                JOINT LeftHandFore2
                                {
                                    OFFSET 0.215173 -0.024035 0.010864
                                    CHANNELS 3 Zrotation Yrotation Xrotation
                                    JOINT LeftHandFore3
                                    {
                                        OFFSET 0.127998 -0.018363 0.006493
                                        CHANNELS 3 Zrotation Yrotation Xrotation
                                        End Site
                                        {
                                            OFFSET 0.191872 -0.022849 0.005461
                                        }
                                    }
                                }
                            }
                            JOINT LeftHandMiddle1
                            {
                                OFFSET 0.709887 -0.008320 0.018526
                                CHANNELS 3 Zrotation Yrotation Xrotation
                                JOINT LeftHandMiddle2
                                {
                                    OFFSET 0.243305 -0.028680 0.006624
                                    CHANNELS 3 Zrotation Yrotation Xrotation
                                    JOINT LeftHandMiddle3
                                    {
                                        OFFSET 0.145223 -0.016669 0.003951
                                        CHANNELS 3 Zrotation Yrotation Xrotation
                                        End Site
                                        {
                                            OFFSET 0.233621 -0.031666 0.006995
                                        }
                                    }
                                }
                            }
                            JOINT LeftHandRing1
                            {
                                OFFSET 0.743817 -0.005823 -0.153668
                                CHANNELS 3 Zrotation Yrotation Xrotation
                                JOINT LeftHandRing2
                                {
                                    OFFSET 0.349394 -0.050632 -0.009675
                                    CHANNELS 3 Zrotation Yrotation Xrotation
                                    JOINT LeftHandRing3
                                    {
                                        OFFSET 0.134332 -0.023631 0.001421
                                        CHANNELS 3 Zrotation Yrotation Xrotation
                                        End Site
                                        {
                                            OFFSET 0.116893 -0.027459 0.001278
                                        }
                                    }
                                }
                            }
                            JOINT LeftHandLittle1
                            {
                                OFFSET 0.689408 -0.053302 -0.308304
                                CHANNELS 3 Zrotation Yrotation Xrotation
                                JOINT LeftHandLittle2
                                {
                                    OFFSET 0.193251 -0.018757 -0.018874
                                    CHANNELS 3 Zrotation Yrotation Xrotation
                                    JOINT LeftHandLittle3
                                    {
                                        OFFSET 0.116994 -0.025997 -0.011519
                                        CHANNELS 3 Zrotation Yrotation Xrotation
                                        End Site
                                        {
                                            OFFSET 0.189726 -0.012367 -0.011818
                                        }
                                    }
                                }
                            }
                        }
                    }
                }
            }
            JOINT RightCollar
            {
                OFFSET -0.167536 0.778237 -0.168280
                CHANNELS 3 Zrotation Yrotation Xrotation
                JOINT RightShoulder
                {
                    OFFSET -0.831514 -0.002900 0.006457
                    CHANNELS 3 Zrotation Yrotation Xrotation
                    JOINT RightElbow
                    {
                        OFFSET -2.272872 -0.026639 0.059313
                        CHANNELS 3 Zrotation Yrotation Xrotation
                        JOINT RightWrist
                        {
                            OFFSET -2.081982 -0.024402 0.054331
                            CHANNELS 3 Zrotation Yrotation Xrotation
                            JOINT RightHandThumb1
                            {
                                OFFSET -0.218911 -0.128571 0.283837
                                CHANNELS 3 Zrotation Yrotation Xrotation
                                JOINT RightHandThumb2
                                {
                                    OFFSET -0.137157 -0.025101 0.077902
                                    CHANNELS 3 Zrotation Yrotation Xrotation
                                    JOINT RightHandThumb3
                                    {
                                        OFFSET -0.165861 -0.067014 0.039226
                                        CHANNELS 3 Zrotation Yrotation Xrotation
                                        End Site
                                        {
                                            OFFSET -0.229436 -0.065997 0.121819
                                        }
                                    }
                                }
                            }
                            JOINT RightHandFore1
                            {
                                OFFSET -0.767344 -0.015991 0.196679
                                CHANNELS 3 Zrotation Yrotation Xrotation
                                JOINT RightHandFore2
                                {
                                    OFFSET -0.215182 -0.023988 0.010864
                                    CHANNELS 3 Zrotation Yrotation Xrotation
                                    JOINT RightHandFore3
                                    {
                                        OFFSET -0.127999 -0.018333 0.006493
                                        CHANNELS 3 Zrotation Yrotation Xrotation
                                        End Site
                                        {
                                            OFFSET -0.191454 -0.022769 0.013914
                                        }
                                    }
                                }
                            }
                            JOINT RightHandMiddle1
                            {
                                OFFSET -0.709887 -0.008302 0.018525
                                CHANNELS 3 Zrotation Yrotation Xrotation
                                JOINT RightHandMiddle2
                                {
                                    OFFSET -0.243299 -0.028704 0.006624
                                    CHANNELS 3 Zrotation Yrotation Xrotation
                                    JOINT RightHandMiddle3
                                    {
                                        OFFSET -0.145226 -0.016685 0.003951
                                        CHANNELS 3 Zrotation Yrotation Xrotation
                                        End Site
                                        {
                                            OFFSET -0.233653 -0.031672 0.005780
                                        }
                                    }
                                }
                            }
                            JOINT RightHandRing1
                            {
                                OFFSET -0.743819 -0.005785 -0.153669
                                CHANNELS 3 Zrotation Yrotation Xrotation
                                JOINT RightHandRing2
                                {
                                    OFFSET -0.349398 -0.050607 -0.009675
                                    CHANNELS 3 Zrotation Yrotation Xrotation
                                    JOINT RightHandRing3
                                    {
                                        OFFSET -0.134041 -0.023657 -0.008853
                                        CHANNELS 3 Zrotation Yrotation Xrotation
                                        End Site
                                        {
                                            OFFSET -0.116640 -0.027483 -0.007746
                                        }
                                    }
                                }
                            }
                            JOINT RightHandLittle1
                            {
                                OFFSET -0.689403 -0.053298 -0.308303
                                CHANNELS 3 Zrotation Yrotation Xrotation
                                JOINT RightHandLittle2
                                {
                                    OFFSET -0.193254 -0.018751 -0.018875
                                    CHANNELS 3 Zrotation Yrotation Xrotation
                                    JOINT RightHandLittle3
                                    {
                                        OFFSET -0.116992 -0.025993 -0.011520
                                        CHANNELS 3 Zrotation Yrotation Xrotation
                                        End Site
                                        {
                                            OFFSET -0.188440 -0.012318 -0.025042
                                        }
                                    }
                                }
                            }
                        }
                    }
                }
            }
        }
    }
    JOINT LeftHip
    {
        OFFSET 0.685143 0.673822 -0.044491
        CHANNELS 3 Zrotation Yrotation Xrotation
        JOINT LeftKnee
        {
            OFFSET 0.085364 -3.750208 0.017676
            CHANNELS 3 Zrotation Yrotation Xrotation
            JOINT LeftAnkle
            {
                OFFSET 0.094583 -4.155206 0.019585
                CHANNELS 3 Zrotation Yrotation Xrotation
                JOINT LeftToe
                {
                    OFFSET -0.000000 -0.395925 0.621478
                    CHANNELS 3 Zrotation Yrotation Xrotation
                    End Site
                    {
                        OFFSET -0.000000 -0.077878 0.321152
                    }
                }
            }
        }
    }
    JOINT RightHip
    {
        OFFSET -0.685143 0.673822 -0.044492
        CHANNELS 3 Zrotation Yrotation Xrotation
        JOINT RightKnee
        {
            OFFSET -0.085364 -3.750208 0.017677
            CHANNELS 3 Zrotation Yrotation Xrotation
            JOINT RightAnkle
            {
                OFFSET -0.094583 -4.155206 0.019585
                CHANNELS 3 Zrotation Yrotation Xrotation
                JOINT RightToe
                {
                    OFFSET -0.000000 -0.395925 0.621478
                    CHANNELS 3 Zrotation Yrotation Xrotation
                    End Site
                    {
                        OFFSET -0.000000 -0.077878 0.321152
                    }
                }
            }
        }
    }
}
MOTION
Frames: 7
Frame Time: 0.033333
2.534904 8.136556 -11.390716 47.745014 80.556999 42.127762 -5.456265 -33.366199 11.809319 -2.741535 5.294366 -1.574532 4.944958 -3.706275 6.854936 -0.164329 3.188850 16.198158 1.869557 -8.648059 -0.186605 5.729801 -4.009593 -3.139871 0.026051 -16.013109 -0.192548 -79.224403 14.512077 -54.034367 -0.000029 -0.000010 -0.000013 3.089764 7.580106 11.788367 -12.706753 29.029858 15.760158 -68.127815 1.552768 -1.534908 -64.795799 7.231361 -10.137672 -60.612049 4.854929 12.768838 -61.252254 0.965848 -4.909218 -60.984035 7.627534 -8.088046 -61.977329 0.578082 -9.904488 -59.660721 3.604716 2.832173 -61.294186 9.195563 -8.956300 -60.558609 1.647424 -9.398221 -62.187431 2.928815 6.658054 -58.385620 7.442737 2.792358 -68.165771 1.701797 -15.798704 1.452159 -5.970475 -0.133724 -29.507599 -31.898863 55.866203 -174.867401 81.382599 -175.593216 -9.651037 -3.460875 -24.342361 0.000010 -0.000013 -0.000006 12.259442 -6.306695 -4.068738 18.770203 -29.452417 7.721950 68.127792 -1.553882 -1.535372 64.025452 4.925798 15.655168 61.906746 2.751166 -7.252109 61.252190 -0.964671 -4.908987 60.764538 6.752128 11.068476 61.381676 -0.310683 12.958315 59.660713 -3.604564 2.832260 61.229530 10.804310 6.204054 60.883869 3.229079 6.643113 62.187370 -2.928802 6.658325 55.342766 11.779840 -12.827905 69.337173 7.937505 5.092222 10.474168 -4.544685 26.210085 0.015848 0.202670 8.939908 6.920366 12.702153 -14.377538 -0.000002 -0.000010 0.000001 -28.537510 -20.649120 -15.074520 -0.141543 -0.590912 26.942839 4.654359 11.695643 -3.539914 0.000003 0.000005 0.000002
2.534595 8.128765 -11.382958 45.028038 80.295380 39.376713 -5.557283 -33.445263 12.017624 -2.726421 5.318859 -1.342384 4.545945 -3.393778 6.968806 -0.197786 3.836206 16.360106 1.901401 -8.980103 -0.191216 5.904087 -5.776313 -3.072981 0.021390 -14.581341 -0.174539 -78.817444 14.675126 -53.434116 -0.000036 -0.000004 -0.000010 3.546328 8.549726 13.565774 -14.108216 33.193668 17.738626 -77.601700 1.874717 -1.867768 -73.806168 8.442937 -11.730019 -69.032242 5.731168 14.407507 -69.775215 1.193375 -5.681276 -69.452103 8.800159 -9.284878 -70.617966 0.770050 -11.352243 -67.949547 4.198007 3.143323 -69.833817 10.371797 -10.115412 -69.009499 1.925562 -10.716527 -70.833488 3.436963 7.487518 -66.555779 8.138068 3.423061 -77.677200 1.523182 -17.569107 1.091293 -8.262363 -0.092408 -33.176304 -35.977341 64.454277 -30.624056 88.714439 -31.292738 -21.802944 1.250767 -14.144520 -0.000003 -0.000004 -0.000001 13.982719 -7.240251 -4.801384 21.323278 -33.790974 7.974782 77.601669 -1.875988 -1.868297 72.983704 5.397224 17.666945 70.541847 2.936538 -8.398330 69.775154 -1.192038 -5.681009 69.243103 7.576167 12.541619 69.941414 -0.471648 14.691238 67.949516 -4.197847 3.143431 69.721512 12.400034 7.172505 69.368286 3.920823 7.767734 70.833412 -3.436958 7.487838 62.914894 13.731741 -14.424803 78.951050 9.450369 6.255323 10.385110 -4.538951 25.498011 0.023445 0.246148 10.879087 6.905424 13.233773 -15.267690 0.000002 0.000015 0.000002 -28.217304 -20.663071 -15.602420 -0.146823 -0.601189 27.450550 4.641937 11.956309 -3.653816 0.000000 0.000003 -0.000004
2.533957 8.120926 -11.375334 42.635281 80.075653 36.952663 -5.625700 -33.500156 12.212015 -2.700117 5.338223 -1.119331 4.129014 -3.107590 7.081293 -0.228232 4.424481 16.513456 1.947886 -9.495459 -0.197754 6.035207 -5.130007 -2.967635 0.041220 -19.879868 -0.242558 -77.690544 15.127897 -51.887100 -0.000024 0.000006 -0.000012 3.915340 9.307606 15.007314 -15.174974 36.527901 19.303377 -85.161156 2.138343 -2.161841 -81.001862 9.428334 -13.049431 -75.752464 6.452718 15.676596 -76.576393 1.383172 -6.319325 -76.209297 9.748605 -10.260926 -77.515686 0.935500 -12.528337 -74.562820 4.680183 3.371017 -76.645164 11.300697 -11.018312 -75.757225 2.154322 -11.774523 -77.732651 3.851590 8.125794 -73.070946 8.657100 3.992442 -85.266365 1.350158 -18.875872 3.039958 -4.491971 -0.288549 -5.778965 -37.767944 31.187618 -176.830032 74.491447 -177.596909 -29.563334 -4.643903 -28.180817 0.000002 -0.000013 -0.000004 15.363153 -7.991309 -5.417086 23.421501 -37.274277 8.005651 85.161133 -2.139721 -2.162415 80.135445 5.751294 19.227514 77.433022 3.064112 -9.351627 76.576355 -1.381692 -6.319036 76.009605 8.219690 13.697359 76.774887 -0.614421 16.053129 74.562820 -4.679998 3.371137 76.498268 13.680760 7.970712 76.143646 4.496772 8.718094 77.732582 -3.851583 8.126147 68.947754 15.323883 -15.647815 86.634048 10.683699 7.295460 10.346880 -4.530941 24.971878 0.030425 0.280041 12.399475 6.888681 13.690091 -15.970804 0.000010 0.000032 0.000015 -27.895702 -20.678413 -16.082247 -0.151991 -0.611035 27.939007 4.603881 12.181169 -3.776899 0.000001 0.000010 0.000003
2.532944 8.113125 -11.368741 40.728195 79.907204 35.019806 -5.675532 -33.534840 12.386061 -2.676848 5.353368 -0.921921 3.698208 -2.857982 7.195426 -0.254774 4.936524 16.665119 2.004138 -10.128757 -0.205615 6.246720 -4.823483 -2.874887 0.071244 -25.585546 -0.321091 -75.974152 15.800039 -49.768986 -0.000029 0.000003 -0.000015 4.161831 9.801405 15.972662 -15.856349 38.739483 20.335230 -90.164574 2.314286 -2.370699 -85.768555 10.086752 -13.947927 -80.201660 6.939031 16.496569 -81.078140 1.511527 -6.752792 -80.682312 10.381392 -10.918009 -82.082527 1.049707 -13.317687 -78.939865 5.002439 3.511232 -81.151337 11.912104 -11.604668 -80.225464 2.308663 -12.478193 -82.299271 4.129146 8.536304 -77.379555 8.987105 4.403524 -90.288910 1.227441 -19.687479 2.826101 -1.351323 -0.280401 13.553089 -24.903593 7.238342 -177.344101 70.327309 -178.136124 -38.441624 -10.877269 -37.250469 -0.000007 0.000002 -0.000013 16.279757 -8.490914 -5.840011 24.853628 -39.587536 7.933475 90.164566 -2.315772 -2.371289 84.869995 5.977496 20.237396 81.994141 3.141023 -10.002614 81.078087 -1.509968 -6.752462 80.488174 8.639908 14.451941 81.299377 -0.714760 16.943571 78.939827 -5.002249 3.511373 80.984764 14.530686 8.512045 80.631256 4.886638 9.374369 82.299179 -4.129135 8.536694 72.938576 16.391430 -16.430490 91.727867 11.505717 8.040627 10.341052 -4.523266 24.544964 0.036773 0.307479 13.636664 6.861254 14.053147 -16.553692 -0.000002 0.000004 -0.000005 -27.610947 -20.695423 -16.507107 -0.157073 -0.620526 28.411991 4.545178 12.348828 -3.914971 0.000000 -0.000003 0.000000
2.531527 8.105436 -11.364136 39.466110 79.799263 33.740231 -5.722144 -33.553352 12.533051 -2.672383 5.365418 -0.767936 3.257423 -2.654191 7.314803 -0.276624 5.357511 16.822989 2.063661 -10.808115 -0.213971 6.536609 -5.558901 -2.810759 0.098468 -29.570246 -0.380420 -73.806931 16.637224 -47.451836 -0.000029 0.000003 -0.000015 4.251456 9.978508 16.324100 -16.098043 39.540398 20.708187 -91.974724 2.378014 -2.449077 -87.494003 10.325795 -14.278079 -81.811661 7.116386 16.789169 -82.706833 1.558349 -6.911843 -82.300751 10.611154 -11.157989 -83.735023 1.091776 -13.605477 -80.523369 5.119489 3.559858 -82.781097 12.132816 -11.814548 -81.842415 2.365018 -12.733484 -83.951454 4.230013 8.682430 -78.937401 9.104364 4.559158 -92.105835 1.182316 -19.970539 1.183771 -0.690105 -0.128232 21.498114 -18.657822 -8.715023 -178.058228 58.258289 -178.925171 -47.342133 -15.633562 -40.632702 -0.000003 -0.000009 -0.000003 16.612000 -8.672091 -5.996072 25.382298 -40.425591 7.887670 91.974709 -2.379506 -2.449697 86.582993 6.058086 20.598137 83.644234 3.167697 -10.242179 82.706764 -1.556744 -6.911507 82.108383 8.790972 14.722821 82.936562 -0.752053 17.263487 80.523354 -5.119282 3.559992 82.608215 14.838443 8.710500 82.255508 5.028974 9.617298 83.951355 -4.229994 8.682823 74.382278 16.779926 -16.708178 93.572807 11.803330 8.321522 10.345833 -4.517923 24.167149 0.042449 0.330006 14.657374 6.820556 14.305335 -17.049683 0.000000 0.000000 -0.000002 -27.402807 -20.714111 -16.872992 -0.162118 -0.629761 28.874420 4.471011 12.439856 -4.073567 0.000000 -0.000005 0.000003
2.529679 8.097937 -11.362423 39.009800 79.761238 33.277485 -5.780029 -33.559582 12.646392 -2.701508 5.375555 -0.674601 2.810736 -2.505116 7.444615 -0.293011 5.672896 16.997763 2.117767 -11.454170 -0.221797 6.848187 -7.183434 -2.774606 0.112810 -31.381376 -0.408921 -71.356247 17.636173 -45.307129 -0.000015 -0.000003 0.000000 4.251450 9.978509 16.324095 -16.098038 39.540401 20.708183 -91.974716 2.378017 -2.449052 -87.494011 10.325793 -14.278082 -81.811653 7.116386 16.789169 -82.706833 1.558353 -6.911814 -82.300751 10.611155 -11.157992 -83.735031 1.091774 -13.605479 -80.523354 5.119485 3.559878 -82.781090 12.132811 -11.814547 -81.842415 2.365020 -12.733484 -83.951431 4.230015 8.682455 -78.937416 9.104364 4.559156 -92.105835 1.182309 -19.970543 -0.800944 -0.756047 0.059476 25.068909 -6.253701 -23.783236 -178.358826 46.400383 -179.303864 -55.118877 -20.236216 -48.592949 -0.000003 -0.000010 0.000002 16.611998 -8.672087 -5.996077 25.382305 -40.425591 7.887667 91.974724 -2.379507 -2.449689 86.582993 6.058088 20.598137 83.644241 3.167695 -10.242176 82.706772 -1.556747 -6.911505 82.108383 8.790969 14.722817 82.936554 -0.752050 17.263487 80.523361 -5.119282 3.559996 82.608215 14.838443 8.710501 82.255508 5.028973 9.617296 83.951363 -4.229994 8.682821 74.382278 16.779921 -16.708176 93.572807 11.803333 8.321520 10.340826 -4.516394 23.804455 0.047428 0.348484 15.498123 6.766282 14.428500 -17.477364 -0.000005 -0.000003 -0.000007 -27.308918 -20.734684 -17.175844 -0.167168 -0.638831 29.330223 4.386457 12.436082 -4.257414 0.000001 0.000002 0.000003
2.527580 8.090548 -11.362966 39.009800 79.761238 33.277485 -6.180224 -33.580555 12.682827 -3.045661 5.402524 -0.868329 2.375375 -2.371834 7.712950 -0.311250 6.023428 17.431530 2.230673 -12.037276 -0.236228 7.392035 -9.095101 -2.767391 0.115808 -31.740194 -0.414695 -68.824463 18.867077 -43.700733 -0.000017 0.000003 -0.000002 4.251455 9.978504 16.324097 -16.098042 39.540401 20.708191 -91.974724 2.378012 -2.449071 -87.494003 10.325791 -14.278082 -81.811653 7.116386 16.789167 -82.706833 1.558339 -6.911848 -82.300751 10.611154 -11.157990 -83.735023 1.091775 -13.605482 -80.523369 5.119491 3.559860 -82.781090 12.132812 -11.814542 -81.842407 2.365021 -12.733482 -83.951447 4.230009 8.682429 -78.937416 9.104364 4.559158 -92.105835 1.182313 -19.970535 -1.784480 -0.319142 0.152157 33.562500 13.687823 -31.616341 -178.379196 45.213860 -179.332367 -60.765701 -24.858555 -50.409611 -0.000010 -0.000020 -0.000007 16.612000 -8.672088 -5.996076 25.382305 -40.425591 7.887665 91.974724 -2.379500 -2.449690 86.582993 6.058087 20.598141 83.644249 3.167699 -10.242175 82.706764 -1.556744 -6.911511 82.108383 8.790973 14.722819 82.936562 -0.752050 17.263487 80.523354 -5.119283 3.559988 82.608215 14.838443 8.710501 82.255508 5.028975 9.617296 83.951355 -4.229984 8.682815 74.382278 16.779921 -16.708176 93.572807 11.803334 8.321514 10.322275 -4.516704 23.468639 0.051782 0.363831 16.198954 6.616568 14.614015 -17.640303 -0.000002 -0.000023 -0.000013 -27.286230 -20.756254 -17.438904 -0.172098 -0.647526 29.769741 4.206353 12.430134 -4.466909 0.000001 0.000003 0.000003
